<?xml version="1.0" standalone="no"?>
<!DOCTYPE svg PUBLIC "-//W3C//DTD SVG 20010904//EN"
 "http://www.w3.org/TR/2001/REC-SVG-20010904/DTD/svg10.dtd">
<svg version="1.0" xmlns="http://www.w3.org/2000/svg"
 width="2438.000000pt" height="2438.000000pt" viewBox="0 0 2438.000000 2438.000000"
 preserveAspectRatio="xMidYMid meet">
<metadata>
Created by potrace 1.11, written by Peter Selinger 2001-2013
</metadata>
<g transform="translate(0.000000,2438.000000) scale(0.100000,-0.100000)"
fill="#000000" stroke="none">
<path d="M12041 24368 c-376 -18 -733 -103 -1011 -241 -69 -34 -447 -248 -840
-476 -725 -420 -1288 -745 -3335 -1926 -627 -362 -1417 -818 -1755 -1013 -338
-195 -714 -412 -835 -482 -1904 -1097 -1824 -1050 -1963 -1162 -487 -389 -881
-1048 -1002 -1674 -11 -60 -24 -143 -28 -184 -9 -99 -9 -9943 0 -10040 51
-529 337 -1141 746 -1596 194 -215 344 -332 673 -522 85 -49 667 -385 1294
-747 627 -362 1694 -977 2370 -1368 677 -390 1289 -744 1360 -785 72 -41 699
-404 1395 -805 1491 -861 1472 -850 1713 -988 355 -203 623 -290 1047 -340
122 -14 430 -17 574 -6 286 22 580 91 819 191 134 56 25 -6 1837 1041 69 40
330 190 580 335 250 144 570 328 710 409 140 82 406 235 590 341 184 106 387
223 450 260 155 90 282 163 1075 620 374 216 736 425 805 465 69 40 316 182
550 317 2207 1273 2121 1222 2280 1359 530 456 927 1208 978 1853 4 54 7 2318
7 5030 -2 5483 4 5007 -69 5296 -162 641 -594 1287 -1089 1628 -40 27 -364
218 -722 424 -758 438 -811 468 -1720 992 -379 219 -730 422 -780 451 -49 29
-382 221 -740 427 -357 207 -1206 696 -1885 1088 -679 392 -1307 754 -1395
805 -88 51 -407 236 -710 411 -302 175 -592 340 -643 365 -161 81 -375 153
-577 193 -186 37 -271 46 -575 59 -19 1 -100 -1 -179 -5z m414 -5283 c404 -82
758 -341 995 -730 44 -71 134 -249 290 -570 48 -99 147 -301 220 -450 73 -148
170 -346 215 -440 45 -93 147 -300 225 -460 78 -159 180 -366 225 -460 45 -93
135 -277 199 -407 64 -131 168 -345 232 -475 64 -131 154 -314 199 -408 45
-93 147 -300 225 -460 134 -273 205 -419 433 -885 52 -107 156 -321 232 -475
76 -154 168 -343 205 -420 37 -77 134 -275 215 -440 81 -165 185 -376 230
-470 45 -93 140 -287 210 -430 70 -143 167 -341 215 -440 86 -177 213 -436
445 -910 65 -132 161 -330 215 -440 100 -204 219 -449 445 -910 70 -143 164
-336 210 -430 45 -93 144 -296 220 -450 169 -346 255 -523 255 -530 0 -3 -749
-5 -1666 -5 l-1665 0 -348 703 -348 702 -2779 -1 c-1528 -1 -2786 -2 -2795 -3
-14 -1 -89 -123 -87 -141 0 -3 -27 -61 -61 -128 -34 -68 -58 -129 -54 -135 3
-7 2 -9 -2 -4 -5 4 -60 -97 -122 -225 -63 -128 -173 -353 -245 -501 l-131
-267 -1669 0 -1668 0 46 93 c26 50 77 155 114 232 37 77 134 275 215 440 149
303 273 556 460 940 56 116 162 332 235 480 73 149 174 356 225 460 51 105
148 303 215 440 67 138 166 340 220 450 54 110 157 322 230 470 73 149 179
365 235 480 105 215 245 501 470 960 70 143 169 346 220 450 97 199 249 510
430 880 59 121 132 269 161 329 29 60 50 114 47 119 -3 6 -1 7 4 4 11 -7 36
43 36 69 0 7 4 11 9 8 4 -3 8 -1 8 5 0 6 54 119 120 251 66 133 121 249 122
258 2 9 6 19 10 22 4 3 62 118 129 255 67 138 189 387 272 555 82 168 191 391
242 495 51 105 154 316 230 470 76 154 179 366 230 470 604 1239 627 1282 762
1462 77 102 223 246 323 317 164 118 372 206 565 239 44 8 146 15 227 16 122
2 167 -2 273 -24z m-3012 -10780 c-3 -9 -8 -14 -10 -11 -3 3 -2 9 2 15 9 16
15 13 8 -4z"/>
<path d="M12147 14050 c-24 -52 -83 -174 -129 -270 -47 -96 -148 -305 -225
-465 -78 -159 -188 -389 -247 -509 -58 -120 -106 -220 -106 -221 0 -2 -67
-141 -150 -310 -82 -169 -150 -308 -150 -310 0 -1 -58 -122 -130 -269 -71
-146 -139 -288 -151 -314 -12 -26 -53 -110 -90 -186 -38 -77 -67 -142 -65
-144 4 -4 164 -6 181 -2 6 1 15 1 20 0 6 -1 91 -1 190 0 99 0 185 1 190 1 6 0
183 0 395 0 212 0 394 0 405 0 76 -1 1547 -2 1573 -2 28 1 31 3 22 19 -9 16
-113 231 -230 477 -26 55 -89 186 -140 290 -51 105 -121 249 -155 320 -34 72
-102 211 -150 310 -48 99 -116 239 -150 310 -34 72 -97 202 -140 290 -195 402
-231 478 -290 600 -35 72 -101 209 -148 305 l-85 175 -45 -95z m-822 -2950 c3
-5 1 -10 -4 -10 -6 0 -11 5 -11 10 0 6 2 10 4 10 3 0 8 -4 11 -10z"/>
</g>
</svg>
